ffmpeg version 4.4.2-0ubuntu0.22.04.1 Copyright (c) 2000-2021 the FFmpeg developers
  built with gcc 11 (Ubuntu 11.2.0-19ubuntu1)
  configuration: --prefix=/usr --extra-version=0ubuntu0.22.04.1 --toolchain=hardened --libdir=/usr/lib/x86_64-linux-gnu --incdir=/usr/include/x86_64-linux-gnu --arch=amd64 --enable-gpl --disable-stripping --enable-gnutls --enable-ladspa --enable-libaom --enable-libass --enable-libbluray --enable-libbs2b --enable-libcaca --enable-libcdio --enable-libcodec2 --enable-libdav1d --enable-libflite --enable-libfontconfig --enable-libfreetype --enable-libfribidi --enable-libgme --enable-libgsm --enable-libjack --enable-libmp3lame --enable-libmysofa --enable-libopenjpeg --enable-libopenmpt --enable-libopus --enable-libpulse --enable-librabbitmq --enable-librubberband --enable-libshine --enable-libsnappy --enable-libsoxr --enable-libspeex --enable-libsrt --enable-libssh --enable-libtheora --enable-libtwolame --enable-libvidstab --enable-libvorbis --enable-libvpx --enable-libwebp --enable-libx265 --enable-libxml2 --enable-libxvid --enable-libzimg --enable-libzmq --enable-libzvbi --enable-lv2 --enable-omx --enable-openal --enable-opencl --enable-opengl --enable-sdl2 --enable-pocketsphinx --enable-librsvg --enable-libmfx --enable-libdc1394 --enable-libdrm --enable-libiec61883 --enable-chromaprint --enable-frei0r --enable-libx264 --enable-shared
  libavutil      56. 70.100 / 56. 70.100
  libavcodec     58.134.100 / 58.134.100
  libavformat    58. 76.100 / 58. 76.100
  libavdevice    58. 13.100 / 58. 13.100
  libavfilter     7.110.100 /  7.110.100
  libswscale      5.  9.100 /  5.  9.100
  libswresample   3.  9.100 /  3.  9.100
  libpostproc    55.  9.100 / 55.  9.100
Input #0, flv, from '/storage/32426326/20250704/32426326-20250704-134549-187.flv':
  Metadata:
    5.1             : false
    displayHeight   : 1440
    cdn_ip          : 192.168.252.5
    audiochannels   : 2
    4.1             : false
    2.1             : false
    displayWidth    : 2560
    7.1             : false
    fileSize        : 0
    3.1             : false
    4.0             : false
    encoder         : obs-output module (libobs version 31.0.2)
    fps             : 60
    Title           : 技术主播没有GG
    Artist          : 蓝音BuBuLine (32426326)
    Comment         : mikufans直播间 32426326 的直播录像
                    : 主播名: 蓝音BuBuLine
                    : 直播标题: 技术主播没有GG
                    : 直播分区: 单机游戏·主机游戏
                    : 录制时间: 2025-07-04T13:45:49.2700036+00:00
                    : 直播服务器:
                    : d1--ov-gotcha07.bilivideo.com [156.59.188.245]
                    : 
                    : 使用 mikufans录播姬 录制 https://rec.danmuji.org
                    : 录播姬版本: 2.17.0
    RecordedBy      : BililiveRecorder mikufans录播姬
    RecordedFrom    : d1--ov-gotcha07.bilivideo.com
    StreamServers   : d1--ov-gotcha07.bilivideo.com [156.59.188.245]
    RecorderVersion : 2.17.0+Branch.tags-v2.17.0.Sha.79d60d3b69038634787f3d53faa1124d513cf64a
    StartTime       : Fri, 04 Jul 2025 13:45:49 +0000
    RoomId          : 32426326
    ShortId         : 0
    Name            : 蓝音BuBuLine
    StreamTitle     : 技术主播没有GG
    AreaNameParent  : 单机游戏
    AreaNameChild   : 主机游戏
  Duration: 05:42:29.22, start: 0.035000, bitrate: 8538 kb/s
  Stream #0:0: Video: h264 (High), yuv420p(tv, bt709, progressive), 2560x1440 [SAR 1:1 DAR 16:9], 10240 kb/s, 60 fps, 59.94 tbr, 1k tbn, 120 tbc
  Stream #0:1: Audio: aac (LC), 48000 Hz, stereo, fltp, 196 kb/s
Stream mapping:
  Stream #0:0 -> #0:0 (h264 (native) -> png (native))
Press [q] to stop, [?] for help
Output #0, image2, to '/storage/32426326/20250704/32426326-20250704-134549-187.all.thumb.png':
  Metadata:
    5.1             : false
    displayHeight   : 1440
    cdn_ip          : 192.168.252.5
    audiochannels   : 2
    4.1             : false
    2.1             : false
    displayWidth    : 2560
    7.1             : false
    fileSize        : 0
    3.1             : false
    4.0             : false
    AreaNameChild   : 主机游戏
    fps             : 60
    Title           : 技术主播没有GG
    Artist          : 蓝音BuBuLine (32426326)
    Comment         : mikufans直播间 32426326 的直播录像
                    : 主播名: 蓝音BuBuLine
                    : 直播标题: 技术主播没有GG
                    : 直播分区: 单机游戏·主机游戏
                    : 录制时间: 2025-07-04T13:45:49.2700036+00:00
                    : 直播服务器:
                    : d1--ov-gotcha07.bilivideo.com [156.59.188.245]
                    : 
                    : 使用 mikufans录播姬 录制 https://rec.danmuji.org
                    : 录播姬版本: 2.17.0
    RecordedBy      : BililiveRecorder mikufans录播姬
    RecordedFrom    : d1--ov-gotcha07.bilivideo.com
    StreamServers   : d1--ov-gotcha07.bilivideo.com [156.59.188.245]
    RecorderVersion : 2.17.0+Branch.tags-v2.17.0.Sha.79d60d3b69038634787f3d53faa1124d513cf64a
    StartTime       : Fri, 04 Jul 2025 13:45:49 +0000
    RoomId          : 32426326
    ShortId         : 0
    Name            : 蓝音BuBuLine
    StreamTitle     : 技术主播没有GG
    AreaNameParent  : 单机游戏
    encoder         : Lavf58.76.100
  Stream #0:0: Video: png, rgb24(pc, gbr/bt709/bt709, progressive), 2560x1440 [SAR 1:1 DAR 16:9], q=2-31, 200 kb/s, 59.94 fps, 59.94 tbn
    Metadata:
      encoder         : Lavc58.134.100 png
frame=    1 fps=0.0 q=0.0 size=N/A time=00:00:00.00 bitrate=N/A speed=   0x    frame=    1 fps=0.0 q=-0.0 Lsize=N/A time=00:00:00.01 bitrate=N/A speed=0.023x    
video:4322kB audio:0kB subtitle:0kB other streams:0kB global headers:0kB muxing overhead: unknown
ffmpeg version 4.4.2-0ubuntu0.22.04.1 Copyright (c) 2000-2021 the FFmpeg developers
  built with gcc 11 (Ubuntu 11.2.0-19ubuntu1)
  configuration: --prefix=/usr --extra-version=0ubuntu0.22.04.1 --toolchain=hardened --libdir=/usr/lib/x86_64-linux-gnu --incdir=/usr/include/x86_64-linux-gnu --arch=amd64 --enable-gpl --disable-stripping --enable-gnutls --enable-ladspa --enable-libaom --enable-libass --enable-libbluray --enable-libbs2b --enable-libcaca --enable-libcdio --enable-libcodec2 --enable-libdav1d --enable-libflite --enable-libfontconfig --enable-libfreetype --enable-libfribidi --enable-libgme --enable-libgsm --enable-libjack --enable-libmp3lame --enable-libmysofa --enable-libopenjpeg --enable-libopenmpt --enable-libopus --enable-libpulse --enable-librabbitmq --enable-librubberband --enable-libshine --enable-libsnappy --enable-libsoxr --enable-libspeex --enable-libsrt --enable-libssh --enable-libtheora --enable-libtwolame --enable-libvidstab --enable-libvorbis --enable-libvpx --enable-libwebp --enable-libx265 --enable-libxml2 --enable-libxvid --enable-libzimg --enable-libzmq --enable-libzvbi --enable-lv2 --enable-omx --enable-openal --enable-opencl --enable-opengl --enable-sdl2 --enable-pocketsphinx --enable-librsvg --enable-libmfx --enable-libdc1394 --enable-libdrm --enable-libiec61883 --enable-chromaprint --enable-frei0r --enable-libx264 --enable-shared
  libavutil      56. 70.100 / 56. 70.100
  libavcodec     58.134.100 / 58.134.100
  libavformat    58. 76.100 / 58. 76.100
  libavdevice    58. 13.100 / 58. 13.100
  libavfilter     7.110.100 /  7.110.100
  libswscale      5.  9.100 /  5.  9.100
  libswresample   3.  9.100 /  3.  9.100
  libpostproc    55.  9.100 / 55.  9.100
[flv @ 0x55f71fe38fc0] Auto-inserting h264_mp4toannexb bitstream filter
Input #0, concat, from '/storage/32426326/20250704/32426326-20250704-134549-187.all.concat.txt':
  Duration: N/A, start: 0.000000, bitrate: 10436 kb/s
  Stream #0:0: Video: h264 (High), yuv420p(tv, bt709, progressive), 2560x1440 [SAR 1:1 DAR 16:9], 10240 kb/s, 60 fps, 59.94 tbr, 1k tbn, 120 tbc
  Stream #0:1: Audio: aac (LC), 48000 Hz, stereo, fltp, 196 kb/s
Output #0, flv, to '/storage/32426326/20250704/32426326-20250704-134549-187.all.flv':
  Metadata:
    encoder         : Lavf58.76.100
  Stream #0:0: Video: h264 (High) ([7][0][0][0] / 0x0007), yuv420p(tv, bt709, progressive), 2560x1440 [SAR 1:1 DAR 16:9], q=2-31, 10240 kb/s, 60 fps, 59.94 tbr, 1k tbn, 1k tbc
  Stream #0:1: Audio: aac (LC) ([10][0][0][0] / 0x000A), 48000 Hz, stereo, fltp, 196 kb/s
Stream mapping:
  Stream #0:0 -> #0:0 (copy)
  Stream #0:1 -> #0:1 (copy)
Press [q] to stop, [?] for help
frame=    1 fps=0.0 q=-1.0 size=       0kB time=00:00:00.00 bitrate=N/A speed=   0x    frame= 3094 fps=0.0 q=-1.0 size=   32000kB time=00:00:51.67 bitrate=5073.1kbits/s speed= 103x    frame= 4617 fps=4610 q=-1.0 size=   63488kB time=00:01:17.07 bitrate=6747.9kbits/s speed=  77x    frame= 6099 fps=4061 q=-1.0 size=   94720kB time=00:01:42.61 bitrate=7561.6kbits/s speed=68.3x    frame= 7157 fps=3575 q=-1.0 size=  128512kB time=00:02:20.32 bitrate=7502.2kbits/s speed=70.1x    frame= 9294 fps=3714 q=-1.0 size=  161280kB time=00:02:55.93 bitrate=7509.5kbits/s speed=70.3x    frame=10912 fps=3633 q=-1.0 size=  194560kB time=00:03:22.88 bitrate=7855.9kbits/s speed=67.6x    frame=12557 fps=3583 q=-1.0 size=  228608kB time=00:03:50.25 bitrate=8133.5kbits/s speed=65.7x    frame=14201 fps=3546 q=-1.0 size=  262912kB time=00:04:17.64 bitrate=8359.6kbits/s speed=64.3x    frame=16028 fps=3558 q=-1.0 size=  295424kB time=00:04:48.11 bitrate=8399.8kbits/s speed=  64x    frame=17681 fps=3533 q=-1.0 size=  326400kB time=00:05:15.63 bitrate=8471.3kbits/s speed=63.1x    frame=19584 fps=3557 q=-1.0 size=  360448kB time=00:05:47.33 bitrate=8501.2kbits/s speed=63.1x    frame=21246 fps=3538 q=-1.0 size=  395008kB time=00:06:15.00 bitrate=8628.9kbits/s speed=62.4x    frame=22938 fps=3526 q=-1.0 size=  430336kB time=00:06:43.18 bitrate=8743.7kbits/s speed=  62x    frame=24709 fps=3527 q=-1.0 size=  466944kB time=00:07:12.71 bitrate=8840.1kbits/s speed=61.8x    frame=26435 fps=3522 q=-1.0 size=  503040kB time=00:07:41.43 bitrate=8930.6kbits/s speed=61.5x    frame=28160 fps=3517 q=-1.0 size=  539136kB time=00:08:10.18 bitrate=9010.0kbits/s speed=61.2x    frame=29790 fps=3502 q=-1.0 size=  572416kB time=00:08:37.32 bitrate=9064.3kbits/s speed=60.8x    frame=31363 fps=3482 q=-1.0 size=  605184kB time=00:09:03.52 bitrate=9121.3kbits/s speed=60.3x    frame=33074 fps=3479 q=-1.0 size=  640768kB time=00:09:32.03 bitrate=9176.3kbits/s speed=60.2x    frame=34645 fps=3462 q=-1.0 size=  673536kB time=00:09:58.18 bitrate=9223.9kbits/s speed=59.8x    frame=36322 fps=3457 q=-1.0 size=  708608kB time=00:10:26.08 bitrate=9271.8kbits/s speed=59.6x    frame=38051 fps=3456 q=-1.0 size=  744448kB time=00:10:54.91 bitrate=9312.0kbits/s speed=59.5x    frame=39661 fps=3446 q=-1.0 size=  777728kB time=00:11:21.74 bitrate=9345.4kbits/s speed=59.2x    frame=41421 fps=3449 q=-1.0 size=  814592kB time=00:11:51.06 bitrate=9384.7kbits/s speed=59.2x    frame=43432 fps=3472 q=-1.0 size=  851712kB time=00:12:24.53 bitrate=9371.3kbits/s speed=59.5x    frame=44983 fps=3457 q=-1.0 size=  883712kB time=00:12:50.40 bitrate=9396.8kbits/s speed=59.2x    frame=47158 fps=3490 q=-1.0 size=  920832kB time=00:13:26.61 bitrate=9352.0kbits/s speed=59.7x    frame=48912 fps=3491 q=-1.0 size=  957184kB time=00:13:55.83 bitrate=9381.3kbits/s speed=59.7x    frame=50554 fps=3484 q=-1.0 size=  991488kB time=00:14:23.17 bitrate=9409.7kbits/s speed=59.5x    frame=52292 fps=3484 q=-1.0 size= 1027584kB time=00:14:52.16 bitrate=9435.4kbits/s speed=59.4x    frame=54064 fps=3485 q=-1.0 size= 1064448kB time=00:15:21.67 bitrate=9461.0kbits/s speed=59.4x    frame=55632 fps=3474 q=-1.0 size= 1096960kB time=00:15:47.77 bitrate=9481.5kbits/s speed=59.2x    frame=57402 fps=3476 q=-1.0 size= 1133824kB time=00:16:17.25 bitrate=9504.5kbits/s speed=59.2x    frame=59190 fps=3479 q=-1.0 size= 1170944kB time=00:16:47.05 bitrate=9525.2kbits/s speed=59.2x    frame=60754 fps=3469 q=-1.0 size= 1203456kB time=00:17:13.12 bitrate=9542.6kbits/s speed=  59x    frame=62620 fps=3476 q=-1.0 size= 1242368kB time=00:17:44.20 bitrate=9563.5kbits/s speed=59.1x    frame=64348 fps=3476 q=-1.0 size= 1278208kB time=00:18:13.00 bitrate=9580.1kbits/s speed=  59x    frame=66037 fps=3473 q=-1.0 size= 1313536kB time=00:18:41.10 bitrate=9598.1kbits/s speed=  59x    frame=67706 fps=3470 q=-1.0 size= 1347840kB time=00:19:08.92 bitrate=9610.3kbits/s speed=58.9x    frame=69554 fps=3475 q=-1.0 size= 1386240kB time=00:19:39.71 bitrate=9626.1kbits/s speed=58.9x    frame=71140 fps=3468 q=-1.0 size= 1419264kB time=00:20:06.11 bitrate=9639.7kbits/s speed=58.8x    frame=72842 fps=3466 q=-1.0 size= 1454592kB time=00:20:34.47 bitrate=9652.7kbits/s speed=58.7x    frame=74613 fps=3468 q=-1.0 size= 1491456kB time=00:21:03.95 bitrate=9666.5kbits/s speed=58.7x    frame=76465 fps=3473 q=-1.0 size= 1524480kB time=00:21:34.82 bitrate=9645.0kbits/s speed=58.8x    frame=78088 fps=3468 q=-1.0 size= 1558272kB time=00:22:01.84 bitrate=9657.3kbits/s speed=58.7x    frame=80222 fps=3485 q=-1.0 size= 1593856kB time=00:22:37.37 bitrate=9619.2kbits/s speed=  59x    frame=82009 fps=3487 q=-1.0 size= 1630720kB time=00:23:07.13 bitrate=9630.5kbits/s speed=  59x    frame=83600 fps=3481 q=-1.0 size= 1664000kB time=00:23:33.63 bitrate=9642.9kbits/s speed=58.9x    frame=85127 fps=3472 q=-1.0 size= 1695744kB time=00:23:59.06 bitrate=9653.2kbits/s speed=58.7x    frame=86723 fps=3466 q=-1.0 size= 1728768kB time=00:24:25.66 bitrate=9662.5kbits/s speed=58.6x    frame=88535 fps=3469 q=-1.0 size= 1766656kB time=00:24:55.86 bitrate=9675.0kbits/s speed=58.6x    frame=90299 fps=3470 q=-1.0 size= 1803008kB time=00:25:25.25 bitrate=9683.8kbits/s speed=58.6x    frame=92118 fps=3473 q=-1.0 size= 1835520kB time=00:25:55.53 bitrate=9666.5kbits/s speed=58.6x    frame=93686 fps=3467 q=-1.0 size= 1868288kB time=00:26:21.62 bitrate=9676.7kbits/s speed=58.5x    frame=95874 fps=3483 q=-1.0 size= 1905920kB time=00:26:58.07 bitrate=9649.3kbits/s speed=58.8x    frame=97622 fps=3484 q=-1.0 size= 1942528kB time=00:27:27.21 bitrate=9660.6kbits/s speed=58.8x    frame=99335 fps=3482 q=-1.0 size= 1978112kB time=00:27:55.72 bitrate=9670.2kbits/s speed=58.7x    frame=101125 fps=3484 q=-1.0 size= 2015232kB time=00:28:25.57 bitrate=9679.3kbits/s speed=58.8x    frame=102912 fps=3486 q=-1.0 size= 2052352kB time=00:28:55.32 bitrate=9688.6kbits/s speed=58.8x    frame=104684 fps=3486 q=-1.0 size= 2089216kB time=00:29:24.81 bitrate=9697.8kbits/s speed=58.8x    frame=106414 fps=3486 q=-1.0 size= 2125056kB time=00:29:53.66 bitrate=9705.5kbits/s speed=58.8x    frame=108236 fps=3489 q=-1.0 size= 2162944kB time=00:30:24.00 bitrate=9714.3kbits/s speed=58.8x    frame=109952 fps=3488 q=-1.0 size= 2198784kB time=00:30:52.62 bitrate=9722.7kbits/s speed=58.8x    frame=111675 fps=3487 q=-1.0 size= 2234368kB time=00:31:21.29 bitrate=9729.4kbits/s speed=58.7x    frame=113472 fps=3489 q=-1.0 size= 2271744kB time=00:31:51.23 bitrate=9737.2kbits/s speed=58.8x    frame=115038 fps=3483 q=-1.0 size= 2304256kB time=00:32:17.30 bitrate=9743.7kbits/s speed=58.7x    frame=116862 fps=3486 q=-1.0 size= 2342144kB time=00:32:47.67 bitrate=9751.0kbits/s speed=58.7x    frame=118613 fps=3486 q=-1.0 size= 2378752kB time=00:33:16.85 bitrate=9758.7kbits/s speed=58.7x    frame=120186 fps=3481 q=-1.0 size= 2411264kB time=00:33:43.05 bitrate=9764.0kbits/s speed=58.6x    frame=122212 fps=3489 q=-1.0 size= 2453504kB time=00:34:16.79 bitrate=9772.1kbits/s speed=58.7x    frame=123740 fps=3483 q=-1.0 size= 2485248kB time=00:34:42.24 bitrate=9777.5kbits/s speed=58.6x    frame=125303 fps=3478 q=-1.0 size= 2517760kB time=00:35:08.27 bitrate=9783.1kbits/s speed=58.5x    frame=127312 fps=3485 q=-1.0 size= 2554880kB time=00:35:41.72 bitrate=9772.3kbits/s speed=58.6x    frame=129008 fps=3484 q=-1.0 size= 2590208kB time=00:36:09.94 bitrate=9778.6kbits/s speed=58.6x    frame=131190 fps=3496 q=-1.0 size= 2627840kB time=00:36:46.30 bitrate=9757.2kbits/s speed=58.8x    frame=132985 fps=3497 q=-1.0 size= 2664960kB time=00:37:16.18 bitrate=9762.8kbits/s speed=58.8x    frame=134652 fps=3495 q=-1.0 size= 2699776kB time=00:37:43.99 bitrate=9768.8kbits/s speed=58.8x    frame=136515 fps=3498 q=-1.0 size= 2738688kB time=00:38:15.02 bitrate=9775.7kbits/s speed=58.8x    frame=138668 fps=3508 q=-1.0 size= 2777856kB time=00:38:50.85 bitrate=9763.0kbits/s speed=  59x    frame=140686 fps=3514 q=-1.0 size= 2811392kB time=00:39:24.49 bitrate=9740.3kbits/s speed=59.1x    frame=142578 fps=3518 q=-1.0 size= 2850048kB time=00:39:55.98 bitrate=9744.5kbits/s speed=59.1x    frame=144377 fps=3519 q=-1.0 size= 2887424kB time=00:40:25.94 bitrate=9750.3kbits/s speed=59.1x    frame=146033 fps=3516 q=-1.0 size= 2921984kB time=00:40:53.56 bitrate=9756.0kbits/s speed=59.1x    frame=147934 fps=3520 q=-1.0 size= 2961408kB time=00:41:25.20 bitrate=9761.7kbits/s speed=59.1x    frame=149692 fps=3519 q=-1.0 size= 2998016kB time=00:41:54.51 bitrate=9767.2kbits/s speed=59.1x    frame=151312 fps=3516 q=-1.0 size= 3031552kB time=00:42:21.46 bitrate=9771.7kbits/s speed=59.1x    frame=153092 fps=3517 q=-1.0 size= 3068672kB time=00:42:51.12 bitrate=9777.2kbits/s speed=59.1x    frame=154919 fps=3518 q=-1.0 size= 3106816kB time=00:43:21.57 bitrate=9782.9kbits/s speed=59.1x    frame=156548 fps=3515 q=-1.0 size= 3140608kB time=00:43:48.73 bitrate=9787.1kbits/s speed=  59x    frame=158325 fps=3516 q=-1.0 size= 3177472kB time=00:44:18.32 bitrate=9791.8kbits/s speed=  59x    frame=160091 fps=3516 q=-1.0 size= 3214080kB time=00:44:47.76 bitrate=9796.1kbits/s speed=  59x    frame=161900 fps=3517 q=-1.0 size= 3251712kB time=00:45:17.87 bitrate=9801.0kbits/s speed=  59x    frame=163682 fps=3517 q=-1.0 size= 3288576kB time=00:45:47.55 bitrate=9805.1kbits/s speed=  59x    frame=165495 fps=3519 q=-1.0 size= 3326464kB time=00:46:17.77 bitrate=9810.2kbits/s speed=59.1x    frame=167193 fps=3517 q=-1.0 size= 3361792kB time=00:46:46.04 bitrate=9814.4kbits/s speed=  59x    frame=168979 fps=3518 q=-1.0 size= 3398912kB time=00:47:15.79 bitrate=9818.7kbits/s speed=  59x    frame=170631 fps=3516 q=-1.0 size= 3432960kB time=00:47:43.30 bitrate=9821.8kbits/s speed=  59x    frame=172382 fps=3515 q=-1.0 size= 3469568kB time=00:48:12.45 bitrate=9826.5kbits/s speed=  59x    frame=174435 fps=3521 q=-1.0 size= 3507712kB time=00:48:46.65 bitrate=9818.4kbits/s speed=59.1x    frame=176437 fps=3526 q=-1.0 size= 3543040kB time=00:49:19.99 bitrate=9805.6kbits/s speed=59.2x    frame=178240 fps=3527 q=-1.0 size= 3580160kB time=00:49:50.06 bitrate=9808.7kbits/s speed=59.2x    frame=180040 fps=3528 q=-1.0 size= 3617792kB time=00:50:20.03 bitrate=9813.4kbits/s speed=59.2x    frame=181692 fps=3525 q=-1.0 size= 3652096kB time=00:50:47.58 bitrate=9816.9kbits/s speed=59.1x    frame=183359 fps=3524 q=-1.0 size= 3686656kB time=00:51:15.33 bitrate=9820.4kbits/s speed=59.1x    frame=185192 fps=3525 q=-1.0 size= 3724800kB time=00:51:45.87 bitrate=9824.5kbits/s speed=59.1x    frame=186780 fps=3522 q=-1.0 size= 3757824kB time=00:52:12.34 bitrate=9827.8kbits/s speed=59.1x    frame=188475 fps=3520 q=-1.0 size= 3792896kB time=00:52:40.57 bitrate=9830.9kbits/s speed=  59x    frame=190065 fps=3517 q=-1.0 size= 3826176kB time=00:53:07.05 bitrate=9834.8kbits/s speed=  59x    frame=191880 fps=3518 q=-1.0 size= 3863808kB time=00:53:37.25 bitrate=9838.3kbits/s speed=  59x    frame=193928 fps=3523 q=-1.0 size= 3906304kB time=00:54:11.39 bitrate=9842.1kbits/s speed=59.1x    frame=195696 fps=3523 q=-1.0 size= 3942912kB time=00:54:40.81 bitrate=9845.2kbits/s speed=59.1x    frame=197488 fps=3524 q=-1.0 size= 3980288kB time=00:55:10.66 bitrate=9848.9kbits/s speed=59.1x    frame=199231 fps=3524 q=-1.0 size= 4016384kB time=00:55:39.69 bitrate=9851.9kbits/s speed=59.1x    frame=201001 fps=3524 q=-1.0 size= 4053248kB time=00:56:09.20 bitrate=9855.2kbits/s speed=59.1x    frame=202546 fps=3520 q=-1.0 size= 4085248kB time=00:56:34.92 bitrate=9857.8kbits/s speed=  59x    frame=204305 fps=3520 q=-1.0 size= 4121856kB time=00:57:04.22 bitrate=9861.0kbits/s speed=  59x    frame=206050 fps=3520 q=-1.0 size= 4158208kB time=00:57:33.27 bitrate=9864.3kbits/s speed=  59x    frame=207629 fps=3517 q=-1.0 size= 4190976kB time=00:57:59.59 bitrate=9866.8kbits/s speed=58.9x    frame=209276 fps=3515 q=-1.0 size= 4225536kB time=00:58:27.05 bitrate=9870.3kbits/s speed=58.9x    frame=211431 fps=3521 q=-1.0 size= 4263424kB time=00:59:02.92 bitrate=9857.9kbits/s speed=  59x    frame=213517 fps=3527 q=-1.0 size= 4298240kB time=00:59:37.68 bitrate=9841.9kbits/s speed=59.1x    frame=215394 fps=3528 q=-1.0 size= 4335104kB time=01:00:08.95 bitrate=9840.3kbits/s speed=59.1x    frame=217238 fps=3530 q=-1.0 size= 4373760kB time=01:00:39.69 bitrate=9844.2kbits/s speed=59.1x    frame=219038 fps=3530 q=-1.0 size= 4410880kB time=01:01:09.64 bitrate=9846.7kbits/s speed=59.1x    frame=220741 fps=3529 q=-1.0 size= 4446208kB time=01:01:38.03 bitrate=9849.4kbits/s speed=59.1x    frame=222546 fps=3530 q=-1.0 size= 4483840kB time=01:02:08.08 bitrate=9852.7kbits/s speed=59.1x    frame=224252 fps=3529 q=-1.0 size= 4519424kB time=01:02:36.51 bitrate=9855.7kbits/s speed=59.1x    frame=225866 fps=3526 q=-1.0 size= 4552704kB time=01:03:03.40 bitrate=9857.7kbits/s speed=59.1x    frame=227638 fps=3527 q=-1.0 size= 4589568kB time=01:03:32.89 bitrate=9860.7kbits/s speed=59.1x    frame=229365 fps=3526 q=-1.0 size= 4625408kB time=01:04:01.67 bitrate=9863.2kbits/s speed=59.1x    frame=231184 fps=3527 q=-1.0 size= 4663296kB time=01:04:31.97 bitrate=9866.2kbits/s speed=59.1x    frame=232922 fps=3526 q=-1.0 size= 4699648kB time=01:05:00.93 bitrate=9869.3kbits/s speed=59.1x    frame=234690 fps=3526 q=-1.0 size= 4736256kB time=01:05:30.36 bitrate=9871.7kbits/s speed=59.1x    frame=236515 fps=3527 q=-1.0 size= 4774144kB time=01:06:00.77 bitrate=9874.3kbits/s speed=59.1x    frame=238204 fps=3526 q=-1.0 size= 4809216kB time=01:06:28.93 bitrate=9876.6kbits/s speed=  59x    frame=239632 fps=3521 q=-1.0 size= 4838656kB time=01:06:52.69 bitrate=9878.2kbits/s speed=  59x    frame=241335 fps=3520 q=-1.0 size= 4874240kB time=01:07:21.08 bitrate=9881.0kbits/s speed=58.9x    frame=243061 fps=3520 q=-1.0 size= 4910080kB time=01:07:49.81 bitrate=9883.3kbits/s speed=58.9x    frame=245017 fps=3523 q=-1.0 size= 4945152kB time=01:08:22.40 bitrate=9874.9kbits/s speed=  59x    frame=246686 fps=3521 q=-1.0 size= 4979968kB time=01:08:50.19 bitrate=9877.5kbits/s speed=  59x    frame=248844 fps=3527 q=-1.0 size= 5017088kB time=01:09:26.13 bitrate=9865.2kbits/s speed=  59x    frame=250687 fps=3528 q=-1.0 size= 5055488kB time=01:09:56.84 bitrate=9868.0kbits/s speed=59.1x    frame=252287 fps=3526 q=-1.0 size= 5088512kB time=01:10:23.47 bitrate=9869.8kbits/s speed=  59x    frame=254147 fps=3527 q=-1.0 size= 5127168kB time=01:10:54.45 bitrate=9872.4kbits/s speed=  59x    frame=256304 fps=3532 q=-1.0 size= 5165568kB time=01:11:30.36 bitrate=9863.1kbits/s speed=59.1x    frame=257975 fps=3531 q=-1.0 size= 5199872kB time=01:11:58.22 bitrate=9864.6kbits/s speed=59.1x    frame=259808 fps=3532 q=-1.0 size= 5238016kB time=01:12:28.75 bitrate=9867.2kbits/s speed=59.1x    frame=261983 fps=3538 q=-1.0 size= 5273856kB time=01:13:04.96 bitrate=9852.6kbits/s speed=59.2x    frame=263754 fps=3538 q=-1.0 size= 5310464kB time=01:13:34.47 bitrate=9854.7kbits/s speed=59.2x    frame=265513 fps=3537 q=-1.0 size= 5347072kB time=01:14:03.78 bitrate=9857.2kbits/s speed=59.2x    frame=267125 fps=3535 q=-1.0 size= 5380864kB time=01:14:30.59 bitrate=9860.0kbits/s speed=59.2x    frame=268908 fps=3536 q=-1.0 size= 5417728kB time=01:15:00.31 bitrate=9862.0kbits/s speed=59.2x    frame=270682 fps=3536 q=-1.0 size= 5454848kB time=01:15:29.85 bitrate=9864.8kbits/s speed=59.2x    frame=272365 fps=3534 q=-1.0 size= 5489664kB time=01:15:57.85 bitrate=9866.8kbits/s speed=59.1x    frame=274090 fps=3534 q=-1.0 size= 5525504kB time=01:16:26.61 bitrate=9868.9kbits/s speed=59.1x    frame=275842 fps=3534 q=-1.0 size= 5561856kB time=01:16:55.75 bitrate=9871.1kbits/s speed=59.1x    frame=277490 fps=3532 q=-1.0 size= 5596160kB time=01:17:23.24 bitrate=9873.2kbits/s speed=59.1x    frame=279097 fps=3530 q=-1.0 size= 5629440kB time=01:17:49.97 bitrate=9875.1kbits/s speed=59.1x    frame=280822 fps=3530 q=-1.0 size= 5665280kB time=01:18:18.72 bitrate=9877.1kbits/s speed=59.1x    frame=282476 fps=3528 q=-1.0 size= 5699840kB time=01:18:46.26 bitrate=9879.5kbits/s speed=  59x    frame=284124 fps=3527 q=-1.0 size= 5733888kB time=01:19:13.74 bitrate=9881.0kbits/s speed=  59x    frame=285781 fps=3525 q=-1.0 size= 5768192kB time=01:19:41.32 bitrate=9882.8kbits/s speed=  59x    frame=287326 fps=3523 q=-1.0 size= 5800192kB time=01:20:07.06 bitrate=9884.4kbits/s speed=58.9x    frame=288848 fps=3520 q=-1.0 size= 5831936kB time=01:20:32.42 bitrate=9886.4kbits/s speed=58.9x    frame=290554 fps=3519 q=-1.0 size= 5867264kB time=01:21:00.85 bitrate=9888.1kbits/s speed=58.9x    frame=292118 fps=3517 q=-1.0 size= 5900032kB time=01:21:26.90 bitrate=9890.3kbits/s speed=58.8x    frame=293648 fps=3514 q=-1.0 size= 5931520kB time=01:21:52.41 bitrate=9891.5kbits/s speed=58.8x    frame=295311 fps=3513 q=-1.0 size= 5964800kB time=01:22:20.12 bitrate=9891.2kbits/s speed=58.8x    frame=297128 fps=3514 q=-1.0 size= 5998080kB time=01:22:50.38 bitrate=9885.8kbits/s speed=58.8x    frame=298716 fps=3511 q=-1.0 size= 6031104kB time=01:23:16.84 bitrate=9887.6kbits/s speed=58.7x    frame=300419 fps=3511 q=-1.0 size= 6066432kB time=01:23:45.20 bitrate=9889.4kbits/s speed=58.7x    frame=302414 fps=3514 q=-1.0 size= 6100480kB time=01:24:18.43 bitrate=9879.6kbits/s speed=58.8x    frame=304327 fps=3515 q=-1.0 size= 6140160kB time=01:24:50.26 bitrate=9881.6kbits/s speed=58.8x    frame=306190 fps=3517 q=-1.0 size= 6179072kB time=01:25:21.33 bitrate=9883.9kbits/s speed=58.8x    frame=307898 fps=3516 q=-1.0 size= 6214400kB time=01:25:49.76 bitrate=9885.6kbits/s speed=58.8x    frame=309660 fps=3516 q=-1.0 size= 6251008kB time=01:26:19.15 bitrate=9887.4kbits/s speed=58.8x    frame=311038 fps=3512 q=-1.0 size= 6279680kB time=01:26:42.07 bitrate=9889.0kbits/s speed=58.7x    frame=312042 fps=3503 q=-1.0 size= 6300416kB time=01:26:58.83 bitrate=9889.8kbits/s speed=58.6x    frame=313689 fps=3502 q=-1.0 size= 6334720kB time=01:27:26.22 bitrate=9891.7kbits/s speed=58.6x    frame=315427 fps=3502 q=-1.0 size= 6370816kB time=01:27:55.18 bitrate=9893.4kbits/s speed=58.6x    frame=317050 fps=3500 q=-1.0 size= 6404608kB time=01:28:22.19 bitrate=9895.3kbits/s speed=58.5x    frame=318805 fps=3500 q=-1.0 size= 6440960kB time=01:28:51.43 bitrate=9896.8kbits/s speed=58.5x    frame=320781 fps=3503 q=-1.0 size= 6477312kB time=01:29:24.38 bitrate=9891.6kbits/s speed=58.6x    frame=322741 fps=3505 q=-1.0 size= 6512384kB time=01:29:57.01 bitrate=9885.0kbits/s speed=58.6x    frame=324764 fps=3508 q=-1.0 size= 6548736kB time=01:30:30.73 bitrate=9878.5kbits/s speed=58.7x    frame=326453 fps=3507 q=-1.0 size= 6584064kB time=01:30:58.83 bitrate=9880.6kbits/s speed=58.6x    frame=328137 fps=3506 q=-1.0 size= 6618880kB time=01:31:26.91 bitrate=9882.0kbits/s speed=58.6x    frame=329875 fps=3506 q=-1.0 size= 6654976kB time=01:31:55.87 bitrate=9883.8kbits/s speed=58.6x    frame=331574 fps=3506 q=-1.0 size= 6690304kB time=01:32:24.15 bitrate=9885.5kbits/s speed=58.6x    frame=333214 fps=3504 q=-1.0 size= 6724352kB time=01:32:51.44 bitrate=9887.2kbits/s speed=58.6x    frame=334903 fps=3504 q=-1.0 size= 6759424kB time=01:33:19.61 bitrate=9888.8kbits/s speed=58.6x    frame=336574 fps=3503 q=-1.0 size= 6794240kB time=01:33:47.41 bitrate=9890.6kbits/s speed=58.6x    frame=338148 fps=3501 q=-1.0 size= 6826752kB time=01:34:13.64 bitrate=9891.8kbits/s speed=58.5x    frame=339803 fps=3500 q=-1.0 size= 6861312kB time=01:34:41.22 bitrate=9893.6kbits/s speed=58.5x    frame=341517 fps=3500 q=-1.0 size= 6896896kB time=01:35:09.74 bitrate=9895.3kbits/s speed=58.5x    frame=342997 fps=3497 q=-1.0 size= 6927616kB time=01:35:34.38 bitrate=9896.6kbits/s speed=58.5x    frame=345187 fps=3501 q=-1.0 size= 6969344kB time=01:36:10.88 bitrate=9893.3kbits/s speed=58.5x    frame=347189 fps=3504 q=-1.0 size= 7008256kB time=01:36:44.23 bitrate=9891.3kbits/s speed=58.6x    frame=349366 fps=3508 q=-1.0 size= 7046144kB time=01:37:20.48 bitrate=9883.1kbits/s speed=58.6x    frame=351253 fps=3509 q=-1.0 size= 7085312kB time=01:37:51.88 bitrate=9884.9kbits/s speed=58.7x    frame=352864 fps=3508 q=-1.0 size= 7118336kB time=01:38:18.75 bitrate=9885.7kbits/s speed=58.6x    frame=354582 fps=3507 q=-1.0 size= 7154176kB time=01:38:47.36 bitrate=9887.5kbits/s speed=58.6x    frame=356283 fps=3507 q=-1.0 size= 7189504kB time=01:39:15.70 bitrate=9889.1kbits/s speed=58.6x    frame=357896 fps=3506 q=-1.0 size= 7223040kB time=01:39:42.56 bitrate=9890.6kbits/s speed=58.6x    frame=359482 fps=3504 q=-1.0 size= 7256320kB time=01:40:08.98 bitrate=9892.5kbits/s speed=58.6x    frame=361289 fps=3504 q=-1.0 size= 7293440kB time=01:40:39.08 bitrate=9893.5kbits/s speed=58.6x    frame=362869 fps=3503 q=-1.0 size= 7326208kB time=01:41:05.36 bitrate=9894.9kbits/s speed=58.5x    frame=364508 fps=3502 q=-1.0 size= 7360256kB time=01:41:32.68 bitrate=9896.3kbits/s speed=58.5x    frame=366204 fps=3501 q=-1.0 size= 7395328kB time=01:42:00.94 bitrate=9897.6kbits/s speed=58.5x    frame=367797 fps=3500 q=-1.0 size= 7428352kB time=01:42:27.45 bitrate=9898.9kbits/s speed=58.5x    frame=369390 fps=3498 q=-1.0 size= 7461888kB time=01:42:54.01 bitrate=9900.8kbits/s speed=58.5x    frame=371172 fps=3499 q=-1.0 size= 7498752kB time=01:43:23.68 bitrate=9902.1kbits/s speed=58.5x    frame=372787 fps=3497 q=-1.0 size= 7532288kB time=01:43:50.60 bitrate=9903.5kbits/s speed=58.5x    frame=374436 fps=3496 q=-1.0 size= 7566592kB time=01:44:18.07 bitrate=9904.9kbits/s speed=58.4x    frame=376099 fps=3495 q=-1.0 size= 7601408kB time=01:44:45.74 bitrate=9906.7kbits/s speed=58.4x    frame=377674 fps=3494 q=-1.0 size= 7633664kB time=01:45:11.98 bitrate=9907.3kbits/s speed=58.4x    frame=379739 fps=3497 q=-1.0 size= 7671040kB time=01:45:46.36 bitrate=9901.9kbits/s speed=58.4x    frame=381399 fps=3496 q=-1.0 size= 7705600kB time=01:46:14.01 bitrate=9903.4kbits/s speed=58.4x    frame=383477 fps=3499 q=-1.0 size= 7740160kB time=01:46:48.62 bitrate=9894.1kbits/s speed=58.5x    frame=385194 fps=3499 q=-1.0 size= 7776000kB time=01:47:17.21 bitrate=9895.7kbits/s speed=58.5x    frame=386953 fps=3499 q=-1.0 size= 7812608kB time=01:47:46.52 bitrate=9897.3kbits/s speed=58.5x    frame=388622 fps=3498 q=-1.0 size= 7847424kB time=01:48:14.32 bitrate=9898.8kbits/s speed=58.5x    frame=390323 fps=3498 q=-1.0 size= 7882496kB time=01:48:42.68 bitrate=9899.8kbits/s speed=58.4x    frame=392053 fps=3497 q=-1.0 size= 7918592kB time=01:49:11.49 bitrate=9901.4kbits/s speed=58.4x    frame=393553 fps=3495 q=-1.0 size= 7949824kB time=01:49:36.48 bitrate=9902.7kbits/s speed=58.4x    frame=395244 fps=3495 q=-1.0 size= 7984896kB time=01:50:04.64 bitrate=9904.0kbits/s speed=58.4x    frame=396982 fps=3495 q=-1.0 size= 8020992kB time=01:50:33.59 bitrate=9905.3kbits/s speed=58.4x    frame=398530 fps=3493 q=-1.0 size= 8053248kB time=01:50:59.35 bitrate=9906.7kbits/s speed=58.4x    frame=400208 fps=3492 q=-1.0 size= 8087808kB time=01:51:27.31 bitrate=9907.6kbits/s speed=58.4x    frame=401934 fps=3492 q=-1.0 size= 8123904kB time=01:51:56.09 bitrate=9909.2kbits/s speed=58.3x    frame=403426 fps=3490 q=-1.0 size= 8154880kB time=01:52:20.94 bitrate=9910.3kbits/s speed=58.3x    frame=405271 fps=3491 q=-1.0 size= 8193280kB time=01:52:51.69 bitrate=9911.7kbits/s speed=58.3x    frame=406930 fps=3490 q=-1.0 size= 8227584kB time=01:53:19.34 bitrate=9912.8kbits/s speed=58.3x    frame=408469 fps=3488 q=-1.0 size= 8259584kB time=01:53:44.95 bitrate=9914.0kbits/s speed=58.3x    frame=410174 fps=3488 q=-1.0 size= 8295168kB time=01:54:13.35 bitrate=9915.4kbits/s speed=58.3x    frame=411865 fps=3487 q=-1.0 size= 8330240kB time=01:54:41.54 bitrate=9916.6kbits/s speed=58.3x    frame=413266 fps=3485 q=-1.0 size= 8359424kB time=01:55:04.90 bitrate=9917.7kbits/s speed=58.2x    frame=415242 fps=3486 q=-1.0 size= 8394752kB time=01:55:37.82 bitrate=9912.3kbits/s speed=58.3x    frame=418327 fps=3498 q=-1.0 size= 8428544kB time=01:56:29.22 bitrate=9879.0kbits/s speed=58.4x    frame=422526 fps=3518 q=-1.0 size= 8462592kB time=01:57:39.16 bitrate=9820.6kbits/s speed=58.8x    frame=426459 fps=3536 q=-1.0 size= 8498176kB time=01:58:44.70 bitrate=9771.2kbits/s speed=59.1x    frame=429626 fps=3548 q=-1.0 size= 8531968kB time=01:59:37.46 bitrate=9738.0kbits/s speed=59.3x    frame=431872 fps=3551 q=-1.0 size= 8569344kB time=02:00:14.88 bitrate=9729.9kbits/s speed=59.3x    frame=433831 fps=3553 q=-1.0 size= 8605696kB time=02:00:47.50 bitrate=9727.2kbits/s speed=59.4x    frame=436357 fps=3559 q=-1.0 size= 8642048kB time=02:01:29.60 bitrate=9711.9kbits/s speed=59.5x    frame=438800 fps=3564 q=-1.0 size= 8678656kB time=02:02:10.27 bitrate=9698.9kbits/s speed=59.5x    frame=440834 fps=3567 q=-1.0 size= 8712448kB time=02:02:44.13 bitrate=9691.9kbits/s speed=59.6x    frame=443071 fps=3570 q=-1.0 size= 8745984kB time=02:03:21.42 bitrate=9680.2kbits/s speed=59.6x    frame=445193 fps=3573 q=-1.0 size= 8781568kB time=02:03:56.78 bitrate=9673.4kbits/s speed=59.7x    frame=447738 fps=3579 q=-1.0 size= 8817920kB time=02:04:39.15 bitrate=9658.4kbits/s speed=59.8x    frame=449822 fps=3581 q=-1.0 size= 8852224kB time=02:05:13.88 bitrate=9651.1kbits/s speed=59.8x    frame=452085 fps=3585 q=-1.0 size= 8887808kB time=02:05:51.55 bitrate=9641.6kbits/s speed=59.9x    frame=454037 fps=3586 q=-1.0 size= 8924928kB time=02:06:24.08 bitrate=9640.3kbits/s speed=59.9x    frame=456238 fps=3589 q=-1.0 size= 8958208kB time=02:07:00.76 bitrate=9629.7kbits/s speed=  60x    frame=458464 fps=3593 q=-1.0 size= 8994048kB time=02:07:37.85 bitrate=9621.4kbits/s speed=  60x    frame=460302 fps=3593 q=-1.0 size= 9030144kB time=02:08:08.46 bitrate=9621.5kbits/s speed=  60x    frame=462841 fps=3599 q=-1.0 size= 9062400kB time=02:08:50.74 bitrate=9603.1kbits/s speed=60.1x    frame=464586 fps=3598 q=-1.0 size= 9096960kB time=02:09:19.84 bitrate=9603.6kbits/s speed=60.1x    frame=466302 fps=3598 q=-1.0 size= 9130496kB time=02:09:48.39 bitrate=9603.7kbits/s speed=60.1x    frame=468164 fps=3598 q=-1.0 size= 9168128kB time=02:10:19.43 bitrate=9605.0kbits/s speed=60.1x    frame=470061 fps=3599 q=-1.0 size= 9203200kB time=02:10:51.03 bitrate=9602.9kbits/s speed=60.1x    frame=471726 fps=3598 q=-1.0 size= 9235968kB time=02:11:18.76 bitrate=9603.2kbits/s speed=60.1x    frame=473529 fps=3598 q=-1.0 size= 9271808kB time=02:11:48.76 bitrate=9603.9kbits/s speed=60.1x    frame=475292 fps=3598 q=-1.0 size= 9308160kB time=02:12:18.16 bitrate=9605.8kbits/s speed=60.1x    frame=476950 fps=3597 q=-1.0 size= 9340160kB time=02:12:45.74 bitrate=9605.4kbits/s speed=60.1x    frame=478981 fps=3598 q=-1.0 size= 9375744kB time=02:13:19.60 bitrate=9601.2kbits/s speed=60.1x    frame=480964 fps=3600 q=-1.0 size= 9412864kB time=02:13:52.62 bitrate=9599.6kbits/s speed=60.1x    frame=483036 fps=3602 q=-1.0 size= 9446656kB time=02:14:27.14 bitrate=9592.9kbits/s speed=60.2x    frame=484988 fps=3603 q=-1.0 size= 9482496kB time=02:14:59.64 bitrate=9590.6kbits/s speed=60.2x    frame=487094 fps=3605 q=-1.0 size= 9519104kB time=02:15:34.67 bitrate=9586.2kbits/s speed=60.2x    frame=488903 fps=3605 q=-1.0 size= 9550080kB time=02:16:04.80 bitrate=9581.9kbits/s speed=60.2x    frame=491208 fps=3609 q=-1.0 size= 9584384kB time=02:16:43.21 bitrate=9571.3kbits/s speed=60.3x    frame=494165 fps=3617 q=-1.0 size= 9619712kB time=02:17:32.47 bitrate=9549.2kbits/s speed=60.4x    frame=496762 fps=3623 q=-1.0 size= 9654528kB time=02:18:15.73 bitrate=9533.8kbits/s speed=60.5x    frame=498673 fps=3624 q=-1.0 size= 9692160kB time=02:18:47.54 bitrate=9534.4kbits/s speed=60.5x    frame=500647 fps=3625 q=-1.0 size= 9724160kB time=02:19:20.41 bitrate=9528.3kbits/s speed=60.5x    frame=503065 fps=3629 q=-1.0 size= 9759488kB time=02:20:00.71 bitrate=9517.0kbits/s speed=60.6x    frame=504949 fps=3630 q=-1.0 size= 9795584kB time=02:20:32.11 bitrate=9516.6kbits/s speed=60.6x    frame=508188 fps=3640 q=-1.0 size= 9829120kB time=02:21:26.08 bitrate=9488.5kbits/s speed=60.8x    frame=509950 fps=3639 q=-1.0 size= 9860096kB time=02:21:55.40 bitrate=9485.6kbits/s speed=60.8x    frame=512181 fps=3642 q=-1.0 size= 9896704kB time=02:22:32.55 bitrate=9479.5kbits/s speed=60.8x    frame=514032 fps=3643 q=-1.0 size= 9931008kB time=02:23:03.37 bitrate=9478.2kbits/s speed=60.8x    frame=515834 fps=3642 q=-1.0 size= 9968128kB time=02:23:33.40 bitrate=9480.4kbits/s speed=60.8x    frame=518645 fps=3649 q=-1.0 size=10005760kB time=02:24:20.21 bitrate=9464.8kbits/s speed=60.9x    frame=520479 fps=3649 q=-1.0 size=10035456kB time=02:24:50.77 bitrate=9459.5kbits/s speed=60.9x    frame=523338 fps=3657 q=-1.0 size=10069760kB time=02:25:38.41 bitrate=9440.1kbits/s speed=61.1x    frame=525804 fps=3661 q=-1.0 size=10105088kB time=02:26:19.47 bitrate=9428.9kbits/s speed=61.1x    frame=527827 fps=3662 q=-1.0 size=10138880kB time=02:26:53.19 bitrate=9424.2kbits/s speed=61.2x    frame=529517 fps=3661 q=-1.0 size=10172416kB time=02:27:21.31 bitrate=9425.3kbits/s speed=61.1x    frame=531427 fps=3662 q=-1.0 size=10209280kB time=02:27:53.15 bitrate=9425.6kbits/s speed=61.1x    frame=533243 fps=3662 q=-1.0 size=10240768kB time=02:28:23.41 bitrate=9422.5kbits/s speed=61.1x    frame=534535 fps=3658 q=-1.0 size=10265088kB time=02:28:44.91 bitrate=9422.1kbits/s speed=61.1x    frame=536209 fps=3657 q=-1.0 size=10299392kB time=02:29:12.83 bitrate=9424.1kbits/s speed=61.1x    frame=538395 fps=3659 q=-1.0 size=10336256kB time=02:29:49.23 bitrate=9419.6kbits/s speed=61.1x    frame=540406 fps=3661 q=-1.0 size=10372096kB time=02:30:22.74 bitrate=9417.1kbits/s speed=61.1x    frame=543111 fps=3666 q=-1.0 size=10407680kB time=02:31:07.79 bitrate=9402.5kbits/s speed=61.2x    frame=546384 fps=3676 q=-1.0 size=10444032kB time=02:32:02.32 bitrate=9378.9kbits/s speed=61.4x    frame=548804 fps=3680 q=-1.0 size=10477568kB time=02:32:42.65 bitrate=9367.6kbits/s speed=61.4x    frame=551876 fps=3688 q=-1.0 size=10515200kB time=02:33:33.80 bitrate=9349.1kbits/s speed=61.6x    frame=554419 fps=3693 q=-1.0 size=10558208kB time=02:34:16.21 bitrate=9344.3kbits/s speed=61.7x    frame=556626 fps=3695 q=-1.0 size=10596352kB time=02:34:52.97 bitrate=9341.0kbits/s speed=61.7x    frame=558729 fps=3697 q=-1.0 size=10632448kB time=02:35:28.00 bitrate=9337.6kbits/s speed=61.7x    frame=560706 fps=3698 q=-1.0 size=10670592kB time=02:36:00.91 bitrate=9338.1kbits/s speed=61.7x    frame=562678 fps=3699 q=-1.0 size=10704896kB time=02:36:33.79 bitrate=9335.4kbits/s speed=61.7x    frame=564877 fps=3701 q=-1.0 size=10743040kB time=02:37:10.42 bitrate=9332.2kbits/s speed=61.8x    frame=566850 fps=3702 q=-1.0 size=10779904kB time=02:37:43.30 bitrate=9331.7kbits/s speed=61.8x    frame=569159 fps=3705 q=-1.0 size=10815232kB time=02:38:21.79 bitrate=9324.4kbits/s speed=61.8x    frame=571259 fps=3706 q=-1.0 size=10853120kB time=02:38:56.78 bitrate=9322.7kbits/s speed=61.9x    frame=573358 fps=3708 q=-1.0 size=10889728kB time=02:39:31.76 bitrate=9320.0kbits/s speed=61.9x    frame=575539 fps=3710 q=-1.0 size=10927360kB time=02:40:08.10 bitrate=9316.8kbits/s speed=61.9x    frame=577741 fps=3712 q=-1.0 size=10965760kB time=02:40:44.77 bitrate=9314.0kbits/s speed=  62x    frame=580012 fps=3714 q=-1.0 size=11004928kB time=02:41:22.59 bitrate=9310.8kbits/s speed=  62x    frame=581959 fps=3715 q=-1.0 size=11038464kB time=02:41:55.02 bitrate=9308.0kbits/s speed=  62x    frame=584194 fps=3717 q=-1.0 size=11076352kB time=02:42:32.27 bitrate=9304.2kbits/s speed=62.1x    frame=586384 fps=3719 q=-1.0 size=11115008kB time=02:43:08.74 bitrate=9301.9kbits/s speed=62.1x    frame=589145 fps=3725 q=-1.0 size=11148032kB time=02:43:54.74 bitrate=9285.9kbits/s speed=62.2x    frame=591856 fps=3730 q=-1.0 size=11189760kB time=02:44:39.90 bitrate=9278.1kbits/s speed=62.3x    frame=594802 fps=3737 q=-1.0 size=11224576kB time=02:45:29.02 bitrate=9260.9kbits/s speed=62.4x    frame=596746 fps=3738 q=-1.0 size=11260672kB time=02:46:01.40 bitrate=9260.5kbits/s speed=62.4x    frame=599001 fps=3740 q=-1.0 size=11298304kB time=02:46:38.94 bitrate=9256.5kbits/s speed=62.4x    frame=600837 fps=3740 q=-1.0 size=11335168kB time=02:47:09.56 bitrate=9258.4kbits/s speed=62.4x    frame=603222 fps=3743 q=-1.0 size=11370240kB time=02:47:49.28 bitrate=9250.4kbits/s speed=62.5x    frame=605389 fps=3745 q=-1.0 size=11406848kB time=02:48:25.40 bitrate=9247.0kbits/s speed=62.5x    frame=607395 fps=3746 q=-1.0 size=11443712kB time=02:48:58.82 bitrate=9246.3kbits/s speed=62.5x    frame=609767 fps=3749 q=-1.0 size=11476736kB time=02:49:38.34 bitrate=9237.0kbits/s speed=62.6x    frame=611870 fps=3750 q=-1.0 size=11514112kB time=02:50:13.40 bitrate=9235.3kbits/s speed=62.6x    frame=613590 fps=3749 q=-1.0 size=11549440kB time=02:50:42.03 bitrate=9237.7kbits/s speed=62.6x    frame=615559 fps=3750 q=-1.0 size=11582720kB time=02:51:14.83 bitrate=9234.8kbits/s speed=62.6x    frame=618234 fps=3754 q=-1.0 size=11620352kB time=02:51:59.39 bitrate=9224.8kbits/s speed=62.7x    frame=620264 fps=3755 q=-1.0 size=11654656kB time=02:52:33.20 bitrate=9221.8kbits/s speed=62.7x    frame=623159 fps=3762 q=-1.0 size=11691008kB time=02:53:21.43 bitrate=9207.6kbits/s speed=62.8x    frame=625182 fps=3762 q=-1.0 size=11728384kB time=02:53:55.12 bitrate=9207.3kbits/s speed=62.8x    frame=627003 fps=3762 q=-1.0 size=11762688kB time=02:54:25.47 bitrate=9207.4kbits/s speed=62.8x    frame=630410 fps=3771 q=-1.0 size=11795200kB time=02:55:22.24 bitrate=9183.0kbits/s speed=62.9x    frame=632836 fps=3774 q=-1.0 size=11830016kB time=02:56:02.66 bitrate=9174.9kbits/s speed=  63x    frame=634675 fps=3774 q=-1.0 size=11866880kB time=02:56:33.30 bitrate=9176.9kbits/s speed=  63x    frame=636708 fps=3775 q=-1.0 size=11904512kB time=02:57:07.16 bitrate=9176.6kbits/s speed=  63x    frame=638408 fps=3774 q=-1.0 size=11939584kB time=02:57:35.48 bitrate=9179.2kbits/s speed=  63x    frame=640429 fps=3775 q=-1.0 size=11977984kB time=02:58:09.15 bitrate=9179.7kbits/s speed=  63x    frame=643010 fps=3779 q=-1.0 size=12013824kB time=02:58:52.14 bitrate=9170.3kbits/s speed=63.1x    frame=644860 fps=3778 q=-1.0 size=12047360kB time=02:59:22.98 bitrate=9169.6kbits/s speed=63.1x    frame=646902 fps=3779 q=-1.0 size=12085760kB time=02:59:56.99 bitrate=9169.8kbits/s speed=63.1x    frame=648754 fps=3779 q=-1.0 size=12120320kB time=03:00:27.84 bitrate=9169.8kbits/s speed=63.1x    frame=651863 fps=3786 q=-1.0 size=12151552kB time=03:01:19.65 bitrate=9149.7kbits/s speed=63.2x    frame=654698 fps=3792 q=-1.0 size=12184576kB time=03:02:06.88 bitrate=9134.9kbits/s speed=63.3x    frame=657006 fps=3794 q=-1.0 size=12219136kB time=03:02:45.31 bitrate=9128.7kbits/s speed=63.3x    frame=659042 fps=3795 q=-1.0 size=12257024kB time=03:03:19.22 bitrate=9128.8kbits/s speed=63.3x    frame=661132 fps=3796 q=-1.0 size=12296192kB time=03:03:54.02 bitrate=9129.1kbits/s speed=63.3x    frame=662837 fps=3795 q=-1.0 size=12329728kB time=03:04:22.43 bitrate=9130.5kbits/s speed=63.3x    frame=665324 fps=3798 q=-1.0 size=12366848kB time=03:05:03.85 bitrate=9123.8kbits/s speed=63.4x    frame=668156 fps=3803 q=-1.0 size=12404224kB time=03:05:51.06 bitrate=9112.6kbits/s speed=63.5x    frame=670014 fps=3803 q=-1.0 size=12437760kB time=03:06:21.99 bitrate=9112.0kbits/s speed=63.5x    frame=672109 fps=3804 q=-1.0 size=12476160kB time=03:06:56.87 bitrate=9111.7kbits/s speed=63.5x    frame=674176 fps=3805 q=-1.0 size=12513280kB time=03:07:31.32 bitrate=9110.8kbits/s speed=63.5x    frame=676226 fps=3806 q=-1.0 size=12547584kB time=03:08:05.44 bitrate=9108.2kbits/s speed=63.5x    frame=678201 fps=3806 q=-1.0 size=12583424kB time=03:08:38.35 bitrate=9107.6kbits/s speed=63.5x    frame=680158 fps=3807 q=-1.0 size=12619520kB time=03:09:10.96 bitrate=9107.5kbits/s speed=63.5x    frame=682093 fps=3807 q=-1.0 size=12652800kB time=03:09:43.20 bitrate=9105.7kbits/s speed=63.5x    frame=684168 fps=3808 q=-1.0 size=12690432kB time=03:10:17.75 bitrate=9105.1kbits/s speed=63.5x    frame=686247 fps=3809 q=-1.0 size=12728064kB time=03:10:52.39 bitrate=9104.5kbits/s speed=63.6x    frame=688060 fps=3808 q=-1.0 size=12762624kB time=03:11:22.62 bitrate=9105.2kbits/s speed=63.6x    frame=690050 fps=3809 q=-1.0 size=12799488kB time=03:11:55.76 bitrate=9105.2kbits/s speed=63.6x    frame=692172 fps=3810 q=-1.0 size=12838144kB time=03:12:31.13 bitrate=9104.7kbits/s speed=63.6x    frame=694014 fps=3809 q=-1.0 size=12871936kB time=03:13:01.80 bitrate=9104.5kbits/s speed=63.6x    frame=696003 fps=3810 q=-1.0 size=12909056kB time=03:13:34.95 bitrate=9104.7kbits/s speed=63.6x    frame=698046 fps=3811 q=-1.0 size=12946176kB time=03:14:08.99 bitrate=9104.2kbits/s speed=63.6x    frame=700083 fps=3811 q=-1.0 size=12984064kB time=03:14:42.92 bitrate=9104.4kbits/s speed=63.6x    frame=702257 fps=3813 q=-1.0 size=13023232kB time=03:15:19.11 bitrate=9103.6kbits/s speed=63.6x    frame=704391 fps=3814 q=-1.0 size=13062656kB time=03:15:54.64 bitrate=9103.6kbits/s speed=63.6x    frame=706508 fps=3815 q=-1.0 size=13101312kB time=03:16:29.92 bitrate=9103.2kbits/s speed=63.7x    frame=708630 fps=3816 q=-1.0 size=13140736kB time=03:17:05.27 bitrate=9103.3kbits/s speed=63.7x    frame=710677 fps=3817 q=-1.0 size=13177856kB time=03:17:39.33 bitrate=9102.8kbits/s speed=63.7x    frame=712762 fps=3818 q=-1.0 size=13216000kB time=03:18:14.09 bitrate=9102.5kbits/s speed=63.7x    frame=714999 fps=3820 q=-1.0 size=13256448kB time=03:18:51.36 bitrate=9101.8kbits/s speed=63.7x    frame=717046 fps=3820 q=-1.0 size=13294080kB time=03:19:25.46 bitrate=9101.6kbits/s speed=63.8x    frame=718974 fps=3820 q=-1.0 size=13329408kB time=03:19:57.58 bitrate=9101.4kbits/s speed=63.8x    frame=721141 fps=3822 q=-1.0 size=13369344kB time=03:20:33.65 bitrate=9101.3kbits/s speed=63.8x    frame=723111 fps=3822 q=-1.0 size=13405184kB time=03:21:06.47 bitrate=9100.9kbits/s speed=63.8x    frame=725088 fps=3822 q=-1.0 size=13442048kB time=03:21:39.44 bitrate=9101.0kbits/s speed=63.8x    frame=727232 fps=3824 q=-1.0 size=13480704kB time=03:22:15.16 bitrate=9100.3kbits/s speed=63.8x    frame=729191 fps=3824 q=-1.0 size=13515776kB time=03:22:47.77 bitrate=9099.5kbits/s speed=63.8x    frame=731204 fps=3824 q=-1.0 size=13552128kB time=03:23:21.34 bitrate=9098.9kbits/s speed=63.8x    frame=733307 fps=3825 q=-1.0 size=13590784kB time=03:23:56.38 bitrate=9098.7kbits/s speed=63.8x    frame=735392 fps=3826 q=-1.0 size=13628672kB time=03:24:31.12 bitrate=9098.3kbits/s speed=63.8x    frame=737474 fps=3827 q=-1.0 size=13667584kB time=03:25:05.76 bitrate=9098.6kbits/s speed=63.9x    frame=739546 fps=3828 q=-1.0 size=13705728kB time=03:25:40.32 bitrate=9098.4kbits/s speed=63.9x    frame=744296 fps=3843 q=-1.0 size=13736192kB time=03:26:59.47 bitrate=9060.5kbits/s speed=64.1x    frame=747495 fps=3849 q=-1.0 size=13769984kB time=03:27:52.74 bitrate=9044.0kbits/s speed=64.2x    frame=750385 fps=3854 q=-1.0 size=13806848kB time=03:28:40.87 bitrate=9033.4kbits/s speed=64.3x    frame=752732 fps=3856 q=-1.0 size=13839616kB time=03:29:19.99 bitrate=9026.6kbits/s speed=64.3x    frame=754981 fps=3858 q=-1.0 size=13877248kB time=03:29:57.45 bitrate=9024.2kbits/s speed=64.4x    frame=757738 fps=3862 q=-1.0 size=13914368kB time=03:30:43.36 bitrate=9015.5kbits/s speed=64.4x    frame=759912 fps=3863 q=-1.0 size=13946624kB time=03:31:19.56 bitrate=9010.6kbits/s speed=64.5x    frame=762309 fps=3866 q=-1.0 size=13985792kB time=03:31:59.50 bitrate=9007.5kbits/s speed=64.5x    frame=764736 fps=3868 q=-1.0 size=14021632kB time=03:32:39.93 bitrate=9002.0kbits/s speed=64.5x    frame=766427 fps=3867 q=-1.0 size=14047232kB time=03:33:08.09 bitrate=8998.6kbits/s speed=64.5x    frame=767751 fps=3864 q=-1.0 size=14074368kB time=03:33:30.13 bitrate=9000.5kbits/s speed=64.5x    frame=770101 fps=3866 q=-1.0 size=14110720kB time=03:34:09.28 bitrate=8996.2kbits/s speed=64.5x    frame=772054 fps=3866 q=-1.0 size=14146560kB time=03:34:41.82 bitrate=8996.3kbits/s speed=64.5x    frame=774650 fps=3869 q=-1.0 size=14183936kB time=03:35:25.07 bitrate=8989.9kbits/s speed=64.6x    frame=776658 fps=3870 q=-1.0 size=14219264kB time=03:35:58.56 bitrate=8989.0kbits/s speed=64.6x    frame=778459 fps=3869 q=-1.0 size=14253056kB time=03:36:28.54 bitrate=8989.5kbits/s speed=64.6x    frame=780441 fps=3869 q=-1.0 size=14290176kB time=03:37:01.53 bitrate=8990.1kbits/s speed=64.6x    frame=782435 fps=3870 q=-1.0 size=14327808kB time=03:37:34.76 bitrate=8990.8kbits/s speed=64.6x    frame=784160 fps=3868 q=-1.0 size=14361600kB time=03:38:03.51 bitrate=8992.2kbits/s speed=64.5x    frame=786504 fps=3870 q=-1.0 size=14398720kB time=03:38:42.55 bitrate=8988.7kbits/s speed=64.6x    frame=788342 fps=3870 q=-1.0 size=14434048kB time=03:39:13.17 bitrate=8989.8kbits/s speed=64.6x    frame=791504 fps=3876 q=-1.0 size=14466048kB time=03:40:05.83 bitrate=8973.8kbits/s speed=64.7x    frame=794215 fps=3880 q=-1.0 size=14501632kB time=03:40:50.97 bitrate=8965.2kbits/s speed=64.7x    frame=796318 fps=3881 q=-1.0 size=14536448kB time=03:41:26.03 bitrate=8963.0kbits/s speed=64.7x    frame=798570 fps=3882 q=-1.0 size=14573824kB time=03:42:03.56 bitrate=8960.7kbits/s speed=64.8x    frame=800915 fps=3884 q=-1.0 size=14610432kB time=03:42:42.61 bitrate=8957.0kbits/s speed=64.8x    frame=803678 fps=3888 q=-1.0 size=14646528kB time=03:43:28.61 bitrate=8948.3kbits/s speed=64.9x    frame=806389 fps=3892 q=-1.0 size=14682368kB time=03:44:13.80 bitrate=8940.1kbits/s speed=64.9x    frame=808741 fps=3894 q=-1.0 size=14719488kB time=03:44:52.97 bitrate=8936.7kbits/s speed=  65x    frame=811939 fps=3900 q=-1.0 size=14754304kB time=03:45:46.24 bitrate=8922.6kbits/s speed=65.1x    frame=814469 fps=3902 q=-1.0 size=14789888kB time=03:46:28.43 bitrate=8916.3kbits/s speed=65.1x    frame=816679 fps=3904 q=-1.0 size=14828288kB time=03:47:05.22 bitrate=8915.3kbits/s speed=65.1x    frame=819094 fps=3906 q=-1.0 size=14866944kB time=03:47:45.44 bitrate=8912.3kbits/s speed=65.2x    frame=821696 fps=3909 q=-1.0 size=14907136kB time=03:48:28.82 bitrate=8908.1kbits/s speed=65.2x    frame=823923 fps=3910 q=-1.0 size=14941440kB time=03:49:05.91 bitrate=8904.5kbits/s speed=65.2x    frame=826170 fps=3912 q=-1.0 size=14977024kB time=03:49:43.33 bitrate=8901.5kbits/s speed=65.3x    frame=828259 fps=3912 q=-1.0 size=15011840kB time=03:50:18.12 bitrate=8899.7kbits/s speed=65.3x    frame=830933 fps=3916 q=-1.0 size=15043584kB time=03:51:02.66 bitrate=8889.9kbits/s speed=65.3x    frame=832796 fps=3915 q=-1.0 size=15075328kB time=03:51:33.74 bitrate=8888.7kbits/s speed=65.3x    frame=835447 fps=3918 q=-1.0 size=15108608kB time=03:52:17.89 bitrate=8880.1kbits/s speed=65.4x    frame=838102 fps=3922 q=-1.0 size=15138304kB time=03:53:02.12 bitrate=8869.4kbits/s speed=65.4x    frame=840063 fps=3922 q=-1.0 size=15170816kB time=03:53:34.79 bitrate=8867.7kbits/s speed=65.4x    frame=842271 fps=3923 q=-1.0 size=15201280kB time=03:54:11.56 bitrate=8862.3kbits/s speed=65.4x    frame=844378 fps=3923 q=-1.0 size=15232256kB time=03:54:46.67 bitrate=8858.2kbits/s speed=65.5x    frame=846142 fps=3922 q=-1.0 size=15262976kB time=03:55:16.04 bitrate=8857.6kbits/s speed=65.4x    frame=848240 fps=3923 q=-1.0 size=15295232kB time=03:55:51.00 bitrate=8854.4kbits/s speed=65.4x    frame=850023 fps=3922 q=-1.0 size=15326208kB time=03:56:20.72 bitrate=8853.7kbits/s speed=65.4x    frame=852042 fps=3923 q=-1.0 size=15361792kB time=03:56:54.35 bitrate=8853.3kbits/s speed=65.4x    frame=854914 fps=3927 q=-1.0 size=15396608kB time=03:57:42.17 bitrate=8843.6kbits/s speed=65.5x    frame=857399 fps=3929 q=-1.0 size=15430144kB time=03:58:23.60 bitrate=8837.2kbits/s speed=65.5x    frame=859680 fps=3931 q=-1.0 size=15465728kB time=03:59:01.60 bitrate=8834.1kbits/s speed=65.6x    frame=861765 fps=3931 q=-1.0 size=15500800kB time=03:59:36.33 bitrate=8832.7kbits/s speed=65.6x    frame=864138 fps=3933 q=-1.0 size=15539200kB time=04:00:15.86 bitrate=8830.3kbits/s speed=65.6x    frame=866756 fps=3936 q=-1.0 size=15579904kB time=04:00:59.48 bitrate=8826.8kbits/s speed=65.7x    frame=869674 fps=3940 q=-1.0 size=15621376kB time=04:01:48.12 bitrate=8820.6kbits/s speed=65.7x    frame=871676 fps=3940 q=-1.0 size=15650304kB time=04:02:21.47 bitrate=8816.7kbits/s speed=65.7x    frame=873576 fps=3940 q=-1.0 size=15685888kB time=04:02:53.11 bitrate=8817.5kbits/s speed=65.7x    frame=876409 fps=3944 q=-1.0 size=15720960kB time=04:03:40.29 bitrate=8808.7kbits/s speed=65.8x    frame=879175 fps=3947 q=-1.0 size=15754752kB time=04:04:26.39 bitrate=8799.9kbits/s speed=65.9x    frame=881193 fps=3948 q=-1.0 size=15791616kB time=04:05:00.02 bitrate=8800.3kbits/s speed=65.9x    frame=884003 fps=3951 q=-1.0 size=15826688kB time=04:05:46.83 bitrate=8791.9kbits/s speed=65.9x    frame=886262 fps=3953 q=-1.0 size=15859712kB time=04:06:24.48 bitrate=8787.8kbits/s speed=65.9x    frame=888362 fps=3953 q=-1.0 size=15896320kB time=04:06:59.46 bitrate=8787.3kbits/s speed=65.9x    frame=890338 fps=3953 q=-1.0 size=15932928kB time=04:07:32.33 bitrate=8788.0kbits/s speed=65.9x    frame=892258 fps=3953 q=-1.0 size=15964928kB time=04:08:04.32 bitrate=8786.7kbits/s speed=65.9x    frame=894428 fps=3954 q=-1.0 size=15998976kB time=04:08:40.51 bitrate=8784.1kbits/s speed=  66x    frame=897613 fps=3959 q=-1.0 size=16032768kB time=04:09:33.58 bitrate=8771.5kbits/s speed=  66x    frame=899994 fps=3961 q=-1.0 size=16068608kB time=04:10:13.22 bitrate=8767.9kbits/s speed=66.1x    frame=901873 fps=3960 q=-1.0 size=16103168kB time=04:10:44.55 bitrate=8768.4kbits/s speed=66.1x    frame=903916 fps=3961 q=-1.0 size=16138240kB time=04:11:18.58 bitrate=8767.7kbits/s speed=66.1x    frame=905438 fps=3959 q=-1.0 size=16168960kB time=04:11:43.94 bitrate=8769.6kbits/s speed=  66x    frame=907235 fps=3958 q=-1.0 size=16204544kB time=04:12:13.86 bitrate=8771.6kbits/s speed=  66x    frame=909124 fps=3957 q=-1.0 size=16237824kB time=04:12:45.34 bitrate=8771.3kbits/s speed=  66x    frame=910815 fps=3956 q=-1.0 size=16271616kB time=04:13:13.52 bitrate=8773.3kbits/s speed=  66x    frame=912633 fps=3955 q=-1.0 size=16307200kB time=04:13:43.79 bitrate=8775.0kbits/s speed=  66x    frame=914512 fps=3955 q=-1.0 size=16342272kB time=04:14:15.09 bitrate=8775.8kbits/s speed=  66x    frame=916460 fps=3955 q=-1.0 size=16378368kB time=04:14:47.55 bitrate=8776.5kbits/s speed=  66x    frame=918381 fps=3955 q=-1.0 size=16413696kB time=04:15:19.57 bitrate=8777.1kbits/s speed=  66x    frame=920194 fps=3954 q=-1.0 size=16449536kB time=04:15:49.76 bitrate=8778.9kbits/s speed=  66x    frame=922002 fps=3953 q=-1.0 size=16483328kB time=04:16:19.88 bitrate=8779.7kbits/s speed=65.9x    frame=923921 fps=3953 q=-1.0 size=16520960kB time=04:16:51.83 bitrate=8781.5kbits/s speed=65.9x    frame=925941 fps=3953 q=-1.0 size=16555264kB time=04:17:25.47 bitrate=8780.6kbits/s speed=65.9x    frame=928169 fps=3954 q=-1.0 size=16587264kB time=04:18:02.60 bitrate=8776.5kbits/s speed=  66x    frame=930239 fps=3955 q=-1.0 size=16623616kB time=04:18:37.06 bitrate=8776.2kbits/s speed=  66x    frame=931991 fps=3954 q=-1.0 size=16658432kB time=04:19:06.27 bitrate=8778.0kbits/s speed=65.9x    frame=933808 fps=3953 q=-1.0 size=16690432kB time=04:19:36.52 bitrate=8777.8kbits/s speed=65.9x    frame=935980 fps=3954 q=-1.0 size=16726016kB time=04:20:12.71 bitrate=8776.2kbits/s speed=65.9x    frame=938669 fps=3957 q=-1.0 size=16759552kB time=04:20:57.51 bitrate=8768.6kbits/s speed=  66x    frame=940880 fps=3958 q=-1.0 size=16800256kB time=04:21:34.35 bitrate=8769.2kbits/s speed=  66x    frame=944627 fps=3965 q=-1.0 size=16836608kB time=04:22:36.77 bitrate=8753.4kbits/s speed=66.1x    frame=946608 fps=3965 q=-1.0 size=16868096kB time=04:23:09.73 bitrate=8751.5kbits/s speed=66.1x    frame=948949 fps=3967 q=-1.0 size=16903424kB time=04:23:48.73 bitrate=8748.2kbits/s speed=66.2x    frame=951123 fps=3967 q=-1.0 size=16939520kB time=04:24:24.98 bitrate=8746.8kbits/s speed=66.2x    frame=953079 fps=3967 q=-1.0 size=16976896kB time=04:24:57.56 bitrate=8748.2kbits/s speed=66.2x    frame=955970 fps=3971 q=-1.0 size=17015296kB time=04:25:45.70 bitrate=8741.5kbits/s speed=66.2x    frame=957933 fps=3971 q=-1.0 size=17053696kB time=04:26:18.42 bitrate=8743.3kbits/s speed=66.2x    frame=959804 fps=3970 q=-1.0 size=17087232kB time=04:26:49.60 bitrate=8743.4kbits/s speed=66.2x    frame=961805 fps=3970 q=-1.0 size=17125888kB time=04:27:22.91 bitrate=8745.0kbits/s speed=66.2x    frame=964053 fps=3971 q=-1.0 size=17161472kB time=04:28:00.38 bitrate=8742.8kbits/s speed=66.2x    frame=966120 fps=3972 q=-1.0 size=17194496kB time=04:28:34.80 bitrate=8740.9kbits/s speed=66.2x    frame=968290 fps=3972 q=-1.0 size=17235968kB time=04:29:10.94 bitrate=8742.3kbits/s speed=66.3x    frame=970289 fps=3972 q=-1.0 size=17272832kB time=04:29:44.27 bitrate=8743.0kbits/s speed=66.3x    frame=972081 fps=3972 q=-1.0 size=17306112kB time=04:30:14.12 bitrate=8743.7kbits/s speed=66.2x    frame=974229 fps=3972 q=-1.0 size=17345280kB time=04:30:49.90 bitrate=8744.2kbits/s speed=66.3x    frame=976799 fps=3975 q=-1.0 size=17389568kB time=04:31:32.71 bitrate=8743.5kbits/s speed=66.3x    frame=980397 fps=3981 q=-1.0 size=17424640kB time=04:32:32.65 bitrate=8729.0kbits/s speed=66.4x    frame=983058 fps=3984 q=-1.0 size=17465856kB time=04:33:16.99 bitrate=8726.0kbits/s speed=66.5x    frame=985602 fps=3986 q=-1.0 size=17505280kB time=04:33:59.37 bitrate=8723.2kbits/s speed=66.5x    frame=987893 fps=3987 q=-1.0 size=17542144kB time=04:34:37.51 bitrate=8721.3kbits/s speed=66.5x    frame=989805 fps=3987 q=-1.0 size=17570560kB time=04:35:09.40 bitrate=8718.5kbits/s speed=66.5x    frame=991541 fps=3986 q=-1.0 size=17594880kB time=04:35:38.27 bitrate=8715.4kbits/s speed=66.5x    frame=993936 fps=3988 q=-1.0 size=17629184kB time=04:36:18.16 bitrate=8711.4kbits/s speed=66.5x    frame=996528 fps=3990 q=-1.0 size=17666560kB time=04:37:01.36 bitrate=8707.1kbits/s speed=66.5x    frame=999204 fps=3993 q=-1.0 size=17700096kB time=04:37:45.95 bitrate=8700.3kbits/s speed=66.6x    frame=1002043 fps=3996 q=-1.0 size=17732864kB time=04:38:33.24 bitrate=8691.8kbits/s speed=66.7x    frame=1005124 fps=4000 q=-1.0 size=17768448kB time=04:39:24.57 bitrate=8682.5kbits/s speed=66.7x    frame=1008098 fps=4004 q=-1.0 size=17799936kB time=04:40:14.07 bitrate=8672.3kbits/s speed=66.8x    frame=1010788 fps=4007 q=-1.0 size=17833728kB time=04:40:58.89 bitrate=8665.7kbits/s speed=66.8x    frame=1014263 fps=4013 q=-1.0 size=17869056kB time=04:41:56.77 bitrate=8653.1kbits/s speed=66.9x    frame=1016567 fps=4014 q=-1.0 size=17901312kB time=04:42:35.15 bitrate=8649.1kbits/s speed=66.9x    frame=1018997 fps=4016 q=-1.0 size=17936896kB time=04:43:15.60 bitrate=8645.7kbits/s speed=  67x    frame=1021846 fps=4019 q=-1.0 size=17972480kB time=04:44:03.06 bitrate=8638.7kbits/s speed=  67x    frame=1023807 fps=4019 q=-1.0 size=18002944kB time=04:44:35.75 bitrate=8636.8kbits/s speed=  67x    frame=1026368 fps=4021 q=-1.0 size=18038784kB time=04:45:18.43 bitrate=8632.4kbits/s speed=67.1x    frame=1029545 fps=4025 q=-1.0 size=18074368kB time=04:46:11.36 bitrate=8622.8kbits/s speed=67.1x    frame=1031305 fps=4024 q=-1.0 size=18108928kB time=04:46:40.66 bitrate=8624.6kbits/s speed=67.1x    frame=1033489 fps=4025 q=-1.0 size=18143232kB time=04:47:17.05 bitrate=8622.7kbits/s speed=67.1x    frame=1035372 fps=4025 q=-1.0 size=18177280kB time=04:47:48.39 bitrate=8623.2kbits/s speed=67.1x    frame=1037154 fps=4024 q=-1.0 size=18209792kB time=04:48:18.09 bitrate=8623.8kbits/s speed=67.1x    frame=1039237 fps=4024 q=-1.0 size=18243584kB time=04:48:52.82 bitrate=8622.5kbits/s speed=67.1x    frame=1041132 fps=4023 q=-1.0 size=18277888kB time=04:49:24.37 bitrate=8623.0kbits/s speed=67.1x    frame=1043356 fps=4024 q=-1.0 size=18311168kB time=04:50:01.45 bitrate=8620.3kbits/s speed=67.1x    frame=1045429 fps=4024 q=-1.0 size=18347520kB time=04:50:35.96 bitrate=8620.3kbits/s speed=67.1x    frame=1047523 fps=4025 q=-1.0 size=18383872kB time=04:51:10.85 bitrate=8620.1kbits/s speed=67.1x    frame=1049568 fps=4025 q=-1.0 size=18416384kB time=04:51:44.92 bitrate=8618.5kbits/s speed=67.1x    frame=1052083 fps=4027 q=-1.0 size=18450432kB time=04:52:26.83 bitrate=8613.9kbits/s speed=67.2x    frame=1054023 fps=4027 q=-1.0 size=18487552kB time=04:52:59.12 bitrate=8615.3kbits/s speed=67.2x    frame=1057279 fps=4031 q=-1.0 size=18519296kB time=04:53:53.35 bitrate=8603.6kbits/s speed=67.2x    frame=1059324 fps=4031 q=-1.0 size=18548736kB time=04:54:27.42 bitrate=8600.6kbits/s speed=67.2x    frame=1061264 fps=4031 q=-1.0 size=18584576kB time=04:54:59.72 bitrate=8601.5kbits/s speed=67.2x    frame=1063181 fps=4031 q=-1.0 size=18616832kB time=04:55:31.64 bitrate=8601.0kbits/s speed=67.2x    frame=1067312 fps=4039 q=-1.0 size=18646016kB time=04:56:40.44 bitrate=8581.1kbits/s speed=67.4x    frame=1070837 fps=4044 q=-1.0 size=18680064kB time=04:57:39.15 bitrate=8568.6kbits/s speed=67.5x    frame=1073961 fps=4049 q=-1.0 size=18713600kB time=04:58:31.21 bitrate=8559.0kbits/s speed=67.5x    frame=1076823 fps=4052 q=-1.0 size=18744832kB time=04:59:18.88 bitrate=8550.5kbits/s speed=67.6x    frame=1080479 fps=4058 q=-1.0 size=18779136kB time=05:00:19.75 bitrate=8537.2kbits/s speed=67.7x    frame=1083676 fps=4062 q=-1.0 size=18811392kB time=05:01:12.99 bitrate=8526.7kbits/s speed=67.7x    frame=1086457 fps=4065 q=-1.0 size=18842880kB time=05:01:59.29 bitrate=8519.1kbits/s speed=67.8x    frame=1089758 fps=4070 q=-1.0 size=18876928kB time=05:02:54.27 bitrate=8508.7kbits/s speed=67.9x    frame=1093275 fps=4075 q=-1.0 size=18910720kB time=05:03:52.88 bitrate=8496.6kbits/s speed=  68x    frame=1096031 fps=4078 q=-1.0 size=18940928kB time=05:04:38.77 bitrate=8488.8kbits/s speed=  68x    frame=1098946 fps=4081 q=-1.0 size=18972416kB time=05:05:27.31 bitrate=8480.3kbits/s speed=68.1x    frame=1102080 fps=4085 q=-1.0 size=19008000kB time=05:06:19.54 bitrate=8472.1kbits/s speed=68.1x    frame=1105747 fps=4091 q=-1.0 size=19048704kB time=05:07:20.62 bitrate=8462.1kbits/s speed=68.2x    frame=1108908 fps=4095 q=-1.0 size=19084032kB time=05:08:13.25 bitrate=8453.7kbits/s speed=68.3x    frame=1111989 fps=4099 q=-1.0 size=19117312kB time=05:09:04.56 bitrate=8445.0kbits/s speed=68.4x    frame=1115122 fps=4103 q=-1.0 size=19147264kB time=05:09:56.79 bitrate=8434.5kbits/s speed=68.4x    frame=1118210 fps=4107 q=-1.0 size=19181824kB time=05:10:48.20 bitrate=8426.4kbits/s speed=68.5x    frame=1120034 fps=4106 q=-1.0 size=19216384kB time=05:11:18.56 bitrate=8427.9kbits/s speed=68.5x    frame=1121759 fps=4105 q=-1.0 size=19251968kB time=05:11:47.32 bitrate=8430.5kbits/s speed=68.5x    frame=1123870 fps=4105 q=-1.0 size=19290880kB time=05:12:22.48 bitrate=8431.7kbits/s speed=68.5x    frame=1126184 fps=4106 q=-1.0 size=19328256kB time=05:13:01.02 bitrate=8430.7kbits/s speed=68.5x    frame=1128251 fps=4106 q=-1.0 size=19367680kB time=05:13:35.48 bitrate=8432.4kbits/s speed=68.5x    frame=1130169 fps=4105 q=-1.0 size=19406336kB time=05:14:07.41 bitrate=8434.9kbits/s speed=68.5x    frame=1131874 fps=4104 q=-1.0 size=19441664kB time=05:14:35.81 bitrate=8437.6kbits/s speed=68.4x    frame=1134650 fps=4107 q=-1.0 size=19477760kB time=05:15:22.07 bitrate=8432.6kbits/s speed=68.5x    frame=1136927 fps=4108 q=-1.0 size=19515904kB time=05:16:00.02 bitrate=8432.2kbits/s speed=68.5x    frame=1139666 fps=4110 q=-1.0 size=19546880kB time=05:16:45.66 bitrate=8425.3kbits/s speed=68.5x    frame=1142270 fps=4112 q=-1.0 size=19584256kB time=05:17:29.00 bitrate=8422.2kbits/s speed=68.6x    frame=1144141 fps=4111 q=-1.0 size=19621888kB time=05:18:00.17 bitrate=8424.6kbits/s speed=68.6x    frame=1146179 fps=4111 q=-1.0 size=19662336kB time=05:18:34.11 bitrate=8427.0kbits/s speed=68.6x    frame=1148688 fps=4113 q=-1.0 size=19706880kB time=05:19:15.90 bitrate=8427.6kbits/s speed=68.6x    frame=1151710 fps=4116 q=-1.0 size=19750656kB time=05:20:06.27 bitrate=8424.2kbits/s speed=68.6x    frame=1153589 fps=4116 q=-1.0 size=19790080kB time=05:20:37.58 bitrate=8427.3kbits/s speed=68.6x    frame=1155504 fps=4115 q=-1.0 size=19829504kB time=05:21:09.48 bitrate=8430.1kbits/s speed=68.6x    frame=1157134 fps=4114 q=-1.0 size=19863552kB time=05:21:36.65 bitrate=8432.7kbits/s speed=68.6x    frame=1158888 fps=4113 q=-1.0 size=19900160kB time=05:22:05.85 bitrate=8435.4kbits/s speed=68.6x    frame=1160821 fps=4112 q=-1.0 size=19940096kB time=05:22:38.05 bitrate=8438.3kbits/s speed=68.6x    frame=1162739 fps=4112 q=-1.0 size=19979520kB time=05:23:10.03 bitrate=8441.0kbits/s speed=68.6x    frame=1164700 fps=4111 q=-1.0 size=20020224kB time=05:23:42.69 bitrate=8444.0kbits/s speed=68.6x    frame=1166793 fps=4111 q=-1.0 size=20063744kB time=05:24:17.54 bitrate=8447.2kbits/s speed=68.6x    frame=1168754 fps=4111 q=-1.0 size=20104448kB time=05:24:50.20 bitrate=8450.2kbits/s speed=68.6x    frame=1170857 fps=4111 q=-1.0 size=20148480kB time=05:25:25.22 bitrate=8453.5kbits/s speed=68.6x    frame=1173018 fps=4112 q=-1.0 size=20193280kB time=05:26:01.20 bitrate=8456.7kbits/s speed=68.6x    frame=1174893 fps=4111 q=-1.0 size=20232448kB time=05:26:32.46 bitrate=8459.6kbits/s speed=68.6x    frame=1177110 fps=4112 q=-1.0 size=20278528kB time=05:27:09.38 bitrate=8462.9kbits/s speed=68.6x    frame=1179086 fps=4111 q=-1.0 size=20319744kB time=05:27:42.30 bitrate=8465.9kbits/s speed=68.6x    frame=1180930 fps=4110 q=-1.0 size=20357888kB time=05:28:12.97 bitrate=8468.6kbits/s speed=68.5x    frame=1182782 fps=4110 q=-1.0 size=20396288kB time=05:28:43.83 bitrate=8471.3kbits/s speed=68.5x    frame=1184631 fps=4109 q=-1.0 size=20434944kB time=05:29:14.65 bitrate=8474.1kbits/s speed=68.5x    frame=1186327 fps=4108 q=-1.0 size=20470016kB time=05:29:42.87 bitrate=8476.5kbits/s speed=68.5x    frame=1187999 fps=4106 q=-1.0 size=20504832kB time=05:30:10.68 bitrate=8479.0kbits/s speed=68.5x    frame=1189918 fps=4106 q=-1.0 size=20544768kB time=05:30:42.61 bitrate=8481.9kbits/s speed=68.5x    frame=1191765 fps=4105 q=-1.0 size=20583168kB time=05:31:13.38 bitrate=8484.6kbits/s speed=68.5x    frame=1193393 fps=4104 q=-1.0 size=20617216kB time=05:31:40.53 bitrate=8487.0kbits/s speed=68.4x    frame=1195185 fps=4103 q=-1.0 size=20654080kB time=05:32:10.37 bitrate=8489.5kbits/s speed=68.4x    frame=1197026 fps=4102 q=-1.0 size=20692480kB time=05:32:40.99 bitrate=8492.2kbits/s speed=68.4x    frame=1198787 fps=4101 q=-1.0 size=20729088kB time=05:33:10.34 bitrate=8494.7kbits/s speed=68.4x    frame=1200657 fps=4101 q=-1.0 size=20767744kB time=05:33:41.50 bitrate=8497.3kbits/s speed=68.4x    frame=1202376 fps=4099 q=-1.0 size=20803584kB time=05:34:10.10 bitrate=8499.9kbits/s speed=68.4x    frame=1204269 fps=4099 q=-1.0 size=20841472kB time=05:34:41.66 bitrate=8502.0kbits/s speed=68.4x    frame=1206099 fps=4098 q=-1.0 size=20879616kB time=05:35:12.15 bitrate=8504.6kbits/s speed=68.3x    frame=1207833 fps=4097 q=-1.0 size=20915712kB time=05:35:40.99 bitrate=8507.1kbits/s speed=68.3x    frame=1209600 fps=4096 q=-1.0 size=20952320kB time=05:36:10.44 bitrate=8509.5kbits/s speed=68.3x    frame=1211386 fps=4095 q=-1.0 size=20989440kB time=05:36:40.19 bitrate=8512.1kbits/s speed=68.3x    frame=1213230 fps=4095 q=-1.0 size=21027584kB time=05:37:10.91 bitrate=8514.6kbits/s speed=68.3x    frame=1214919 fps=4093 q=-1.0 size=21062656kB time=05:37:39.01 bitrate=8517.0kbits/s speed=68.3x    frame=1216850 fps=4093 q=-1.0 size=21101568kB time=05:38:11.17 bitrate=8519.2kbits/s speed=68.2x    frame=1218664 fps=4092 q=-1.0 size=21138688kB time=05:38:41.38 bitrate=8521.5kbits/s speed=68.2x    frame=1220522 fps=4091 q=-1.0 size=21174272kB time=05:39:12.33 bitrate=8522.8kbits/s speed=68.2x    frame=1222289 fps=4091 q=-1.0 size=21211136kB time=05:39:41.73 bitrate=8525.4kbits/s speed=68.2x    frame=1224094 fps=4090 q=-1.0 size=21248512kB time=05:40:11.80 bitrate=8527.8kbits/s speed=68.2x    frame=1225855 fps=4089 q=-1.0 size=21285120kB time=05:40:41.16 bitrate=8530.2kbits/s speed=68.2x    frame=1227678 fps=4088 q=-1.0 size=21323008kB time=05:41:11.51 bitrate=8532.7kbits/s speed=68.2x    frame=1229546 fps=4087 q=-1.0 size=21360896kB time=05:41:42.66 bitrate=8534.9kbits/s speed=68.2x    frame=1231276 fps=4086 q=-1.0 size=21396992kB time=05:42:11.44 bitrate=8537.4kbits/s speed=68.1x    frame=1232340 fps=4086 q=-1.0 Lsize=21419073kB time=05:42:29.18 bitrate=8538.8kbits/s speed=68.1x    
video:20886600kB audio:491195kB subtitle:0kB other streams:0kB global headers:0kB muxing overhead: 0.193086%
